**ABCDEFGHIJKLMNOPQRSTUVWXYZabcdefghijklmnopqrstuvwxyz**************************
**PARASOLID !"#$%&'()*+,-./:;<=>?@[\]^_`{|}~0123456789**************************
**PART1;
MC=AMD64;
MC_MODEL=Intel64 Family 6 Model 165 Stepping 2, GenuineIntel;
MC_ID=unknown;
OS=Windows_NT;
OS_RELEASE=unknown;
FRU=Parasolid Version 35.1, build 256,  4-22-2024;
APPL=SOLIDWORKS 2024-2024282;
SITE=;
USER=unknown;
FORMAT=text;
GUISE=transmit;
KEY=WrenchParasolid;
FILE=WrenchParasolid.x_t;
DATE=Fri Feb 27 19:35:21 2026;
**PART2;
SCH=SCH_3501256_35102;
USFLD_SIZE=0;
**PART3;
**END_OF_HEADER*****************************************************************
T51 : TRANSMIT FILE created by modeller version 350125623 SCH_3501256_35102_1300
6231 0 12 36 CCCI7 lattice222 0 CCCI4 mesh1006 0 I8 polyline1008 0 CCCCCCCDI5 ow
ner1040 0 CCCI16 boundary_lattice222 0 CCCI13 boundary_mesh1006 0 I17 boundary_p
olyline1008 0 CCCA16 index_map_offset0 0 1 dA9 index_map82 0 A17 node_id_index_m
ap82 0 A20 schema_embedding_map82 0 A5 child12 0 A14 lowest_node_id0 0 1 dA16 me
sh_offset_data206 0 Z1 713 2 3 0 0 0 0 0 0 0 1e3 1e-8 0 4 0 1 0 1 1 5 0 6 7 8 0
 0 9 10 11 0 0 0 0 0 0 0 81 255 2 2 681 12 1 13 0 0 0 0 14 70 11 CI9 list_type0
 0 1 uI10 notransmit0 0 1 lCCCDCCDI12 finger_index0 0 1 dI12 finger_block1012 0
 CZ3 0 4 T1 0 0 9 20 1 15 15 13 255 5 382 0 1 0 16 0 0 17 0 50 255 6 362 0 16 18
 0 0 +-.1003404639774858 .003175 -.002586263405155985 0 0 1 1 0 0 30 255 7 530 0
 1 19 0 20 +-.1003404639774858 0 -.002586263405155985 -1 0 0 29 255 8 280 0 21 2
2 0 .0393595360225142 0 -.002586263405155985 19 9 CCCCCCI5 frame230 0 CA5 owner1
2 0 Z9 129 0 1 17 0 23 0 V0 16 255 10 311 0 ?24 0 25 26 0 0 1 18 255 11 126 0 27
 0 28 29 1000200459719744e-21 1 17 255 27 0 30 31 32 11 33 34 35 36 +18 28 123 0
 32 11 37 38 1000200459719744e-21 1 29 29 128 0 11 38 39 .0393595360225142 .0031
75 -.002586263405155985 29 38 125 0 28 40 29 .0444469556705142 .003175 -.0036497
621558739 29 39 294 0 41 29 42 -.1033950299651124 0 -.002586263405155985 18 41 2
59 0 43 44 0 39 ?1 29 42 293 0 44 39 45 -.1033950299651124 0 .003763736604222285
 18 44 258 0 46 47 41 42 ?1 29 45 292 0 47 42 48 .0393595360198875 0 .0037637366
04222285 18 47 257 0 49 50 44 45 1000200458778414e-21 1 29 48 291 0 50 45 51 .04
444695566800055 0 .00482723535496382 18 50 256 0 52 53 47 48 1000200458778414e-2
1 1 29 51 290 0 53 48 54 .0547144053040725 0 .00931611252936279 18 53 255 0 55 5
6 50 51 1000200497622232e-21 1 29 54 289 0 56 51 57 .067730413535366 0 -.0018765
1481271589 18 56 254 0 58 59 53 54 1000200497622232e-21 1 29 57 288 0 59 54 60 .
0605462086385134 0 .00530769008413673 18 59 253 0 61 62 56 57 10002004077791e-19
 1 29 60 287 0 62 57 63 .0569541061905134 0 .00530769008413673 18 62 252 0 64 65
 59 60 10002004077791e-19 1 29 63 286 0 65 60 66 .0538110165485135 0 .0021646004
4213683 18 65 251 0 67 68 62 63 1000200372261548e-21 1 29 66 285 0 68 63 69 .053
8110165485135 0 -.001427502005863168 18 68 250 0 70 71 65 66 1000200372261548e-2
1 1 29 69 284 0 71 66 72 .060995221445572 0 -.00861170690292162 18 71 249 0 73 7
4 68 69 ?1 29 72 282 0 74 69 22 .0547144052951649 0 -.00813863934523525 18 74 24
7 0 75 76 71 72 ?1 29 22 281 0 76 72 8 .0444469556705142 0 -.0036497621558739 18
 76 246 0 77 21 74 22 1000200459719744e-21 1 17 77 0 78 79 80 76 81 82 0 83 +18
 21 245 0 84 85 76 8 1000200459719744e-21 1 17 84 0 86 87 88 21 43 89 0 90 -18 8
5 84 0 31 91 21 92 ?1 17 31 0 30 93 27 85 94 95 0 96 +18 91 87 0 93 97 85 98 ?1
 29 92 86 0 85 0 98 -.1033950299651124 .003175 -.002586263405155985 29 98 89 0 9
1 92 99 -.1033950299651124 .003175 .003763736604222285 29 99 92 0 97 98 100 .039
3595360198875 .003175 .003763736604222285 18 97 90 0 101 102 91 99 1000200458778
414e-21 1 29 100 95 0 102 99 103 .04444695566800055 .003175 .00482723535496382 1
8 102 93 0 104 105 97 100 1000200458778414e-21 1 29 103 98 0 105 100 106 .054714
4053040725 .003175 .00931611252936279 18 105 96 0 107 108 102 103 10002004976222
32e-21 1 29 106 101 0 108 103 109 .067730413535366 .003175 -.00187651481271589 1
8 108 99 0 110 111 105 106 1000200497622232e-21 1 29 109 104 0 111 106 112 .0605
462086385134 .003175 .00530769008413673 18 111 102 0 113 114 108 109 10002004077
791e-19 1 29 112 107 0 114 109 115 .0569541061905134 .003175 .00530769008413673
 18 114 105 0 116 117 111 112 10002004077791e-19 1 29 115 110 0 117 112 118 .053
8110165485135 .003175 .00216460044213683 18 117 108 0 119 120 114 115 1000200372
261548e-21 1 29 118 113 0 120 115 121 .0538110165485135 .003175 -.00142750200586
3168 18 120 111 0 122 123 117 118 1000200372261548e-21 1 29 121 116 0 123 118 40
 .060995221445572 .003175 -.00861170690292162 18 123 114 0 124 37 120 121 ?1 29
 40 122 0 37 121 38 .0547144052951649 .003175 -.00813863934523525 18 37 120 0 12
5 28 123 40 ?1 17 125 0 30 32 124 37 126 127 0 128 +15 255 30 4 0 31 129 0 17 32
 0 30 27 125 28 130 131 0 79 +17 124 0 30 125 122 123 132 133 0 134 +17 126 0 13
5 136 128 123 125 127 0 0 -16 127 61 0 ?125 131 133 137 0 0 1 17 128 0 135 126 7
5 37 80 138 0 130 -15 135 318 0 75 139 0 17 75 0 135 128 136 74 73 140 0 80 +17
 80 0 78 77 130 74 128 138 0 81 +16 138 299 0 ?80 141 142 143 0 0 1 17 130 0 78
 80 79 37 32 131 0 0 -15 78 316 0 77 144 0 17 79 0 78 130 77 28 83 142 0 33 -16
 131 69 0 ?32 34 127 145 0 0 1 16 34 73 0 1000200459719744e-21 27 146 131 0 0 0
 1 133 255 145 389 0 131 147 148 0 +148 .0547144052951649 .003175 -.008138639345
23525 .0444469556705142 .003175 -.0036497621558739 0 .0112058261728401 137 255 1
47 388 0 1 149 145 150 +151 152 0 ?30 148 390 0 1 145 153 154 +.0547144052951649
 .003175 -.00813863934523525 -.916259940702651 0 .40058422468137 133 153 391 0 1
42 148 155 0 +155 .0444469556705142 .003175 -.0036497621558739 .0444469556705142
 0 -.0036497621558739 0 .003175 141 255 154 145 154 154 148 16 142 298 0 ?83 138
 146 153 0 0 1 30 155 392 0 1 153 156 157 +.0444469556705142 .003175 -.003649762
1558739 0 -1 0 133 156 393 0 146 155 158 0 +158 .0393595360225142 .003175 -.0025
86263405155985 .0393595360225142 0 -.002586263405155985 0 .003175 141 157 153 15
7 157 155 16 146 297 0 ?159 142 34 156 0 0 1 30 158 394 0 1 156 160 161 +.039359
5360225142 .003175 -.002586263405155985 0 -1 0 133 160 395 0 95 158 162 0 +162 .
0393595360225142 .003175 -.002586263405155985 -.1033950299651124 .003175 -.00258
6263405155985 0 .1427545659876266 141 161 156 161 161 158 16 95 5 0 ?31 163 164
 160 0 0 1 30 162 396 0 1 160 165 166 +.0393595360225142 .003175 -.0025862634051
55985 -1 0 0 133 165 397 0 90 162 167 0 +167 .0444469556705142 0 -.0036497621558
739 .0393595360225142 0 -.002586263405155985 0 1 141 166 160 166 166 162 17 90 0
 168 36 83 21 87 164 165 159 +137 167 398 0 1 165 169 170 +151 171 0 ?133 169 39
9 0 87 167 172 0 +172 .0393595360225142 0 -.002586263405155985 .0444469556705142
 0 -.0036497621558739 0 1 141 170 165 170 170 167 67 255 151 348 0 173 174 175 1
76 +177 0 -1 0 ?134 255 171 0 0 0 0 0 0 +178 179 136 255 178 1 2 2 2 5 FFF1 180
 181 182 135 255 179 1 0 45 255 4 180 0 .003175 1 .003175 127 255 2 181 2 2 128
 255 2 182 0 1 14 255 173 315 183 ?129 144 168 5 151 -0 0 129 144 23 50 174 262
 0 184 185 151 186 +.0419582312823623 0 .004032454171070385 0 1 0 0 0 1 50 175 3
49 0 144 151 187 0 +.0547144052951649 .003175 -.00813863934523525 .4005842246813
7 0 .916259940702651 .916259940702651 0 -.40058422468137 141 176 147 188 188 151
 134 177 75 0 1 137 189 190 +191 192 31 255 137 63 0 127 193 177 0 +.05852997003
34516 .003175 .000588736586578889 0 1 0 0 0 1 .0095249999962443 30 189 276 0 194
 177 195 0 +-.1033950299651124 0 -.002586263405155985 0 0 1 141 190 151 190 190
 177 136 191 2 5 3 3 5 FFF1 196 197 198 135 192 2 0 45 15 196 .0444469556705142
 .003175 -.0036497621558739 .0432439402913252 .003175 -.003123809900469105 .0419
582312849312 .003175 -.0028549809719981 .0406730548798836 .003175 -.002586263405
155985 .0393595360225142 .003175 -.002586263405155985 127 3 197 3 2 3 128 3 198
 0 .5 1 16 194 229 0 ?46 199 89 189 0 0 1 31 195 265 0 140 189 143 0 +.058529970
0334511 0 .000588736585831584 0 1 0 0 0 1 .00952499999549699 16 140 181 0 ?75 82
 200 195 0 0 1 30 143 367 0 138 195 201 0 +.0547144052951649 .003175 -.008138639
34523525 0 -1 0 30 201 369 0 141 143 202 0 +.060995221445572 .003175 -.008611706
90292162 0 -1 0 16 141 301 0 ?136 203 138 201 0 0 1 30 202 378 0 25 201 26 0 +-.
1033950299651124 .003175 .003763736604222285 0 -1 0 16 25 310 0 ?204 10 205 202
 0 0 1 30 26 379 0 10 202 35 0 +-.1033950299651124 .003175 -.002586263405155985
 0 -1 0 133 35 385 0 27 26 206 0 +206 .0444469556705142 .003175 -.00364976215587
39 .0393595360225142 .003175 -.002586263405155985 0 1 137 206 386 0 1 35 149 207
 +185 208 0 ?133 149 387 0 33 206 147 0 +147 .0393595360225142 .003175 -.0025862
63405155985 .0444469556705142 .003175 -.0036497621558739 0 1 141 207 35 207 207
 206 50 185 3 0 129 0 174 209 +.0419582312823623 .003175 .004032454171070385 0 1
 0 0 0 1 134 208 0 0 0 0 0 0 +210 211 136 210 2 5 2 3 5 FFF1 212 213 214 135 211
 1 0 45 10 212 -.00768221632694428 .00248872438815187 -.00715637420863927 .00128
59609265533 -.00688743514306849 2568861789953305e-27 -.00661871757622637 -.00128
4901801539556 -.00661871757622637 -.002598695259848125 127 3 213 3 2 3 128 3 214
 0 .5 1 14 129 1 215 ?184 173 30 5 185 +0 0 184 173 23 141 209 206 216 217 185 1
41 216 218 219 209 185 141 217 220 209 221 185 137 220 417 0 1 222 223 224 +185
 225 0 ?141 221 226 217 219 185 137 226 442 0 1 227 228 229 +185 230 0 ?141 219
 231 221 216 185 137 231 463 0 1 232 233 234 +185 235 0 ?133 232 462 0 110 236 2
31 0 +231 .0547144053040725 .003175 .00931611252936279 .067730413535366 .003175
 -.00187651481271589 0 1 133 233 464 0 237 231 238 0 +238 .067730413535366 .0031
75 -.00187651481271589 .0547144053040725 .003175 .00931611252936279 0 1 141 234
 232 234 234 231 134 235 0 0 0 0 0 0 +239 240 136 239 2 17 2 9 5 FFF1 241 242 24
3 135 240 1 0 45 34 241 .00528365835829241 .0127561740217102 .00582228778723989
 .0139881860153227 .00599897096605419 .0153222356376827 .00617544113671442 .0166
546769380202 .00597569875343519 .0179860304398237 .00577627940430381 .0193152308
049875 .00521566201800169 .0205392026832462 .00465595126860603 .0217611951400591
5 .00377830904008844 .0227820492586222 .002902086144713545 .0238012524401208 .00
177606617856385 .02453913999824415 .000651867224832489 .02527583423613605 -.0006
3445585371974 .0256730394098617 -.001918698675955745 .02606960221886165 -.003264
711710402715 .0260950565566417 -.00460910323689795 .026120480230223 -.0059089689
8378628 .0257721822530037 127 9 242 3 2 2 2 2 2 2 2 3 128 9 243 0 .125 .25 .375
 .5 .625 .75 .875 1 17 237 0 244 245 246 105 110 247 233 0 -137 238 465 0 1 233
 248 249 +250 251 0 ?133 248 466 0 252 238 253 0 +253 .04444695566800055 .003175
 .00482723535496382 .0547144053040725 .003175 .00931611252936279 0 .011205826177
31128 141 249 233 249 249 238 67 250 357 0 254 255 256 257 +258 0 -1 0 ?134 251
 0 0 0 0 0 0 +259 260 136 259 1 2 2 2 5 FFF1 261 262 263 135 260 1 0 45 4 261 1
 0 0 0 127 2 262 2 2 128 2 263 0 1 14 254 333 264 ?265 266 244 5 250 -0 0 265 26
6 23 50 255 356 0 265 267 250 0 +.067730413535366 .003175 -.00187651481271589 .7
07106781186548 0 .707106781186548 .707106781186548 0 -.707106781186548 50 256 35
8 0 266 250 268 0 +.04444695566800055 .003175 .00482723535496382 .40058422318630
2 0 -.916259941356287 -.916259941356287 0 -.400584223186302 141 257 238 269 269
 250 134 258 36 0 1 270 271 272 +273 274 134 270 27 0 1 275 258 276 +277 278 134
 271 45 0 1 258 193 279 +280 281 141 272 250 272 272 258 136 273 2 17 3 9 5 FFF1
 282 283 284 135 274 2 0 45 51 282 .0547144053040725 .003175 .00931611252936279
 .055946669165121 .003175 .00985485207348279 .057280466920045 .003175 .010031425
13712456 .058613452189834 .003175 .01020789064098898 .059944261722186 .003175 .0
1000815292450558 .0612739834384635 .003175 .00980857847548711 .0624974339656085
 .003175 .00924811618907208 .0637198844329125 .003175 .00868811202974293 .064740
2805409845 .003175 .00781076321115883 .065759842567798 .003175 .0069341315456494
1 .0664973712806065 .003175 .00580852034963424 .0672342971306005 .003175 .004683
82923865635 .067631270692224 .003175 .003397998317350645 .0680279197639925 .0031
75 .002113218446112355 .068053287839004 .003175 .000767742460667673 .06807864046
6437 .003175 -.00057691421366278 .067730413535366 .003175 -.00187651481271589 12
7 9 283 3 2 2 2 2 2 2 2 3 128 9 284 0 .125 .25 .375 .5 .625 .75 .875 1 134 193 5
4 0 1 271 137 285 +286 287 141 279 267 279 279 271 136 280 2 9 3 5 5 FFF1 288 28
9 290 135 281 2 0 45 27 288 .0605462086385134 .003175 .00530769008413673 .060189
1540915159 .003175 .00566474463113412 .0597221733326049 .003175 .005858292872436
01 .0592559448038874 .003175 .00605152933894151 .0587501574145134 .003175 .00605
163885983434 .0582454700250914 .003175 .00605174814253819 .0577781414964219 .003
175 .00585829287243603 .0573115650339624 .003175 .00566514892758559 .05695410619
05134 .003175 .00530769008413673 127 5 289 3 2 2 2 3 128 5 290 0 .25 .5 .75 1 67
 267 355 0 291 292 255 293 +271 0 -1 0 ?14 291 329 294 ?295 265 296 5 267 -0 0 2
95 265 23 50 292 354 0 295 297 267 0 +.0569541061905134 .003175 .005307690084136
73 -.707106781186549 0 .707106781186546 .707106781186546 0 .707106781186549 141
 293 298 299 299 267 137 298 444 0 1 228 300 301 +267 302 0 ?141 299 303 293 293
 267 137 303 452 0 1 304 305 306 +267 307 0 ?133 304 451 0 64 308 303 0 +303 .06
05462086385134 0 .00530769008413673 .0569541061905134 0 .00530769008413673 0 1 1
33 305 453 0 309 303 310 0 +310 .0569541061905134 0 .00530769008413673 .06054620
86385134 0 .00530769008413673 0 1 141 306 304 306 306 303 134 307 0 0 0 0 0 0 +3
11 312 136 311 1 2 2 2 5 FFF1 313 314 315 135 312 1 0 45 4 313 0 .003175 1 .0031
75 127 2 314 2 2 128 2 315 0 1 17 309 0 86 316 317 59 64 318 305 0 -137 310 454
 0 1 305 319 320 +174 321 0 ?133 319 456 0 322 310 236 0 +236 .067730413535366 0
 -.00187651481271589 .0605462086385134 0 .00530769008413673 0 .01015999999999618
 141 320 305 320 320 310 134 321 0 0 0 0 0 0 +323 324 136 323 2 9 2 5 5 FFF1 325
 326 327 135 324 1 0 45 18 325 .001275235913066344 .01499587490815108 .001632500
29801628 .01535313929310115 .001825838701365645 .01581991021405955 .002019188733
525115 .0162867092100942 .002019184688763955 .01679192613215105 .002019180643675
94 .01729718388041655 .00182583870136563 .01776394205024255 .001632485239774505
 .0182307280294428 .001275235913066344 .01858797735615105 127 5 326 3 2 2 2 3 12
8 5 327 0 .25 .5 .75 1 16 322 207 0 ?61 318 328 319 0 0 1 30 236 457 0 1 319 232
 329 +.067730413535366 0 -.00187651481271589 -.707106781186548 0 .70710678118654
8 141 329 319 329 329 236 17 61 0 330 331 332 59 316 322 0 333 +16 318 202 0 100
02004077791e-19 64 334 322 0 0 0 1 16 328 211 0 1000200497622232e-21 58 322 335
 0 0 0 1 17 58 0 244 246 245 56 336 328 337 332 +16 335 216 0 ?55 328 338 339 0
 0 1 17 55 0 340 341 342 53 343 335 0 245 +16 338 220 0 1000200458778414e-21 52
 335 199 0 0 0 1 133 339 477 0 335 344 345 0 +345 .04444695566800055 0 .00482723
535496382 .0547144053040725 0 .00931611252936279 0 .01120582617731128 137 344 47
5 0 1 346 339 347 +174 348 0 ?30 345 478 0 1 339 349 350 +.04444695566800055 0 .
00482723535496382 .916259941356287 0 .400584223186302 133 349 483 0 104 345 218
 0 +218 .0393595360198875 .003175 .003763736604222285 .04444695566800055 .003175
 .00482723535496382 0 1 141 350 339 350 350 345 17 104 0 30 107 101 102 351 352
 349 353 +137 218 484 0 1 349 354 355 +185 356 0 ?133 354 485 0 351 218 357 0 +3
57 .04444695566800055 .003175 .00482723535496382 .0393595360198875 .003175 .0037
63736604222285 0 1 141 355 349 355 355 218 134 356 0 0 0 0 0 0 +358 359 136 358
 2 5 2 3 5 FFF1 360 361 362 135 359 1 0 45 10 360 -.000268717566848098 -.0025986
95262474805 -.000268717566848098 -.00128600722718732 0 0 .000268496250541704 .00
128494806915439 .000794781183893437 .002488724385638215 127 3 361 3 2 3 128 3 36
2 0 .5 1 17 351 0 363 364 353 97 104 352 354 0 -137 357 486 0 1 354 365 366 +268
 367 0 ?133 365 487 0 368 357 369 0 +369 -.1033950299651124 .003175 .00376373660
4222285 .0393595360198875 .003175 .003763736604222285 0 .142754565985 141 366 35
4 366 366 357 67 268 359 0 370 256 371 372 +270 0 -1 0 ?134 367 0 0 0 0 0 0 +373
 374 136 373 1 2 2 2 5 FFF1 375 376 377 135 374 1 0 45 4 375 1 0 0 0 127 2 376 2
 2 128 2 377 0 1 14 370 337 378 ?266 379 363 5 268 -0 0 266 379 23 50 371 360 0
 379 268 18 0 +-.1033950299651124 .003175 .003763736604222285 0 0 -1 -1 0 0 141
 372 357 380 380 268 141 380 381 372 372 268 137 381 494 0 1 382 383 384 +268 38
5 0 ?133 382 493 0 52 386 381 0 +381 .0393595360198875 0 .003763736604222285 .04
444695566800055 0 .00482723535496382 0 1 133 383 495 0 387 381 388 0 +388 .04444
695566800055 0 .00482723535496382 .0393595360198875 0 .003763736604222285 0 1 14
1 384 382 384 384 381 134 385 0 0 0 0 0 0 +389 390 136 389 1 2 2 2 5 FFF1 391 39
2 393 135 390 1 0 45 4 391 0 .003175 1 .003175 127 2 392 2 2 128 2 393 0 1 17 38
7 0 86 394 343 47 52 338 383 0 -137 388 496 0 1 383 395 396 +174 397 0 ?133 395
 498 0 199 388 398 0 +398 -.1033950299651124 0 .003763736604222285 .039359536019
8875 0 .003763736604222285 0 .142754565985 141 396 383 396 396 388 134 397 0 0 0
 0 0 0 +399 400 136 399 2 5 2 3 5 FFF1 401 402 403 135 400 1 0 45 10 401 .000794
781183893437 .002488724385638215 .0002687164350797195 .00128545169925155 0 0 -.0
00268717566848098 -.001285457113261992 -.000268717566848098 -.002598695262474805
 127 3 402 3 2 3 128 3 403 0 .5 1 16 199 225 0 ?49 338 194 395 0 0 1 30 398 499
 0 1 395 19 404 +-.1033950299651124 0 .003763736604222285 1 0 0 133 19 529 0 89
 398 7 0 +7 .0393595360225142 0 -.002586263405155985 -.1033950299651124 0 -.0025
86263405155985 -.1397 .003054565987626655 141 404 395 404 404 398 16 89 233 0 ?4
3 194 0 19 0 0 1 17 43 0 405 96 159 41 84 89 0 24 +15 405 342 0 43 16 0 17 96 0
 405 94 43 85 24 10 0 406 -17 159 0 405 43 94 21 36 146 0 0 +17 24 0 407 46 406
 41 96 10 0 88 +15 407 340 0 46 408 0 17 46 0 407 409 24 44 88 194 0 204 +17 406
 0 407 24 409 85 93 163 0 0 -17 88 0 86 84 394 41 46 194 0 0 -15 86 171 0 84 184
 0 17 394 0 86 88 387 44 49 199 0 0 -17 49 0 410 411 204 47 394 199 0 364 +15 41
0 338 0 49 379 0 17 411 0 410 412 49 97 364 205 0 351 -17 204 0 410 49 412 44 40
9 25 0 394 +17 364 0 363 52 351 47 411 205 0 387 +15 363 336 0 52 370 0 17 52 0
 363 353 364 50 387 338 382 342 +16 205 309 0 ?364 25 413 414 0 0 1 16 413 308 0
 ?342 205 415 416 0 0 1 133 414 489 0 205 369 417 0 +417 .0393595360198875 .0031
75 .003763736604222285 .0393595360198875 0 .003763736604222285 0 .003175 30 369
 488 0 1 365 414 418 +-.1033950299651124 .003175 .003763736604222285 1 0 0 30 41
7 490 0 1 414 416 419 +.0393595360198875 .003175 .003763736604222285 0 -1 0 133
 416 491 0 413 417 386 0 +386 .04444695566800055 .003175 .00482723535496382 .044
44695566800055 0 .00482723535496382 0 .003175 141 419 414 419 419 417 30 386 492
 0 1 416 382 420 +.04444695566800055 .003175 .00482723535496382 0 -1 0 141 420 4
16 420 420 386 141 418 365 418 418 369 17 342 0 340 55 421 50 353 413 0 343 +16
 415 307 0 ?245 413 422 423 0 0 1 17 245 0 244 58 237 53 341 415 0 336 +16 422 3
06 0 ?332 415 424 425 0 0 1 133 423 468 0 415 253 426 0 +426 .0547144053040725 .
003175 .00931611252936279 .0547144053040725 0 .00931611252936279 0 .003175 30 25
3 467 0 1 248 423 427 +.04444695566800055 .003175 .00482723535496382 .9162599413
56287 0 .400584223186302 30 426 469 0 1 423 425 428 +.0547144053040725 .003175 .
00931611252936279 0 -1 0 133 425 470 0 422 426 429 0 +429 .067730413535366 .0031
75 -.00187651481271589 .067730413535366 0 -.00187651481271589 0 .003175 141 428
 423 428 428 426 30 429 471 0 1 425 337 430 +.067730413535366 .003175 -.00187651
481271589 0 -1 0 133 337 472 0 58 429 431 0 +431 .0547144053040725 0 .0093161125
2936279 .067730413535366 0 -.00187651481271589 0 1 141 430 425 430 430 429 137 4
31 473 0 1 337 346 432 +250 433 0 ?133 346 474 0 336 431 344 0 +344 .06773041353
5366 0 -.00187651481271589 .0547144053040725 0 .00931611252936279 0 1 141 432 33
7 432 432 431 134 433 0 0 0 0 0 0 +434 435 136 434 1 2 2 2 5 FFF1 436 437 438 13
5 435 1 0 45 4 436 0 .003175 1 .003175 127 2 437 2 2 128 2 438 0 1 17 336 0 86 3
43 316 53 58 328 346 0 -17 343 0 86 387 336 50 55 335 0 0 -17 316 0 86 336 309 5
6 61 322 0 0 -141 427 248 427 427 253 17 332 0 330 61 439 56 246 422 0 316 +16 4
24 305 0 ?333 422 440 441 0 0 1 17 333 0 296 64 442 59 331 424 0 309 +16 440 304
 0 ?443 424 444 445 0 0 1 133 441 447 0 424 446 447 0 +447 .0605462086385134 .00
3175 .00530769008413673 .0605462086385134 0 .00530769008413673 0 .003175 30 446
 446 0 1 300 441 448 +.067730413535366 .003175 -.00187651481271589 -.70710678118
6548 0 .707106781186548 30 447 448 0 1 441 445 449 +.0605462086385134 .003175 .0
0530769008413673 0 -1 0 133 445 449 0 440 447 308 0 +308 .0569541061905134 .0031
75 .00530769008413673 .0569541061905134 0 .00530769008413673 0 .003175 141 449 4
41 449 449 447 30 308 450 0 1 445 304 450 +.0569541061905134 .003175 .0053076900
8413673 0 -1 0 141 450 445 450 450 308 133 300 445 0 451 298 446 0 +446 .0677304
13535366 .003175 -.00187651481271589 .0605462086385134 .003175 .0053076900841367
3 0 .01015999999999618 141 448 300 448 448 446 16 451 39 0 ?113 452 247 300 0 0
 1 17 113 0 30 116 110 111 439 451 0 331 +16 452 43 0 10002004077791e-19 116 453
 451 0 0 0 1 16 247 34 0 1000200497622232e-21 110 451 252 0 0 0 1 17 110 0 30 11
3 107 108 237 247 232 246 +16 252 30 0 ?107 247 352 248 0 0 1 17 107 0 30 110 10
4 105 421 252 0 341 +16 352 25 0 1000200458778414e-21 104 252 368 0 0 0 1 16 368
 21 0 ?101 352 163 365 0 0 1 17 101 0 30 104 93 97 412 368 0 411 +16 163 17 0 ?9
3 368 95 275 0 0 1 17 93 0 30 101 31 91 406 163 0 409 +30 275 19 0 163 0 270 0 +
-.1033950299651124 .003175 -.002586263405155985 0 0 1 17 409 0 407 406 46 91 204
 25 0 412 -17 412 0 410 204 411 91 101 368 0 0 -17 421 0 340 342 341 102 107 252
 0 0 -17 341 0 340 421 55 105 245 415 0 237 -15 340 334 0 55 266 0 14 266 335 45
4 ?254 370 340 5 256 -0 0 254 370 23 81 1 454 693 455 266 456 0 378 457 458 13 2
3 130 0 0 0 0 0 0 9 16 14 16 343 457 ?408 0 405 5 6 -0 0 408 0 23 81 1 457 695 4
55 16 459 0 454 460 461 14 408 341 460 ?379 16 407 5 18 -0 0 379 16 23 81 1 460
 697 455 408 462 0 457 463 464 14 379 339 463 ?370 408 410 5 371 -0 0 370 408 23
 50 18 361 0 408 371 6 0 +-.1033950299651124 .003175 -.002586263405155985 1 0 0
 0 0 -1 81 1 463 699 455 379 465 0 460 466 467 80 7 CCCCCDI12 legal_owners0 16 1
 lCZ1 455 468 469 9000 1 1 1 1 1 1 1 1 0 FFFFTFTFFFFFFFFF1 81 3 465 698 470 379
 471 463 462 472 473 0 0 81 1 466 701 455 265 472 0 463 474 475 82 255 1 467 -73
2561305 14 265 331 466 ?291 254 330 5 255 -0 0 291 254 23 81 3 472 700 470 265 4
76 466 465 477 478 0 0 81 1 474 703 455 295 477 0 466 479 480 82 1 475 -73360988
1 14 295 327 474 ?481 291 482 5 292 -0 0 481 291 23 81 3 477 702 470 295 483 474
 472 484 485 0 0 81 1 479 705 455 481 484 0 474 486 487 82 1 480 -734134169 14 4
81 325 479 ?488 295 489 5 297 -0 0 488 295 23 81 3 484 704 470 481 490 479 477 4
91 492 0 0 81 1 486 707 455 488 491 0 479 493 494 82 1 487 -734396313 14 488 323
 486 ?139 481 495 5 496 -0 0 139 481 23 81 3 491 706 470 488 497 486 484 498 499
 0 0 81 1 493 709 455 139 498 0 486 500 501 82 1 494 -734658457 14 139 319 493 ?
144 488 135 5 187 -0 0 144 488 23 81 3 498 708 470 139 502 493 491 503 504 0 0 8
1 1 500 711 455 144 503 0 493 505 506 82 1 501 -735182745 14 144 317 500 ?173 13
9 78 5 175 -0 0 173 139 23 81 3 503 710 470 144 507 500 498 508 509 0 0 81 1 505
 713 455 184 508 0 500 0 510 82 1 506 -735444889 14 184 170 505 ?0 129 86 5 174
 -0 0 0 129 23 81 3 508 712 470 184 511 505 503 0 512 0 0 82 1 510 -739180441 80
 3 470 513 514 9000 0 0 0 0 3 5 0 0 0 FFFFTFFFFFFFFFFF1 1 1 81 1 511 628 515 184
 0 508 516 0 517 82 6 512 0 1938054011 31238226 0 0 0 80 1 515 0 518 8001 0 0 0
 0 3 5 0 0 0 FFFFTFTFFFFFFFFF2 81 1 516 627 515 129 0 519 520 511 521 83 255 3 5
17 .792156862745098 .819607843137255 .933333333333333 81 3 519 684 470 129 516 2
15 522 523 524 0 0 81 1 520 626 515 173 0 522 507 516 525 83 3 521 .792156862745
098 .819607843137255 .933333333333333 81 3 522 682 470 173 520 183 0 519 526 0 0
 81 1 507 625 515 144 0 503 502 520 527 83 3 525 .792156862745098 .8196078431372
55 .933333333333333 81 1 502 624 515 139 0 498 497 507 528 83 3 527 .79215686274
5098 .819607843137255 .933333333333333 81 1 497 623 515 488 0 491 490 502 529 83
 3 528 .792156862745098 .819607843137255 .933333333333333 81 1 490 622 515 481 0
 484 483 497 530 83 3 529 .792156862745098 .819607843137255 .933333333333333 81
 1 483 621 515 295 0 477 531 490 532 83 3 530 .792156862745098 .819607843137255
 .933333333333333 81 1 531 620 515 291 0 533 476 483 534 83 3 532 .7921568627450
98 .819607843137255 .933333333333333 81 3 533 688 470 291 531 294 523 535 536 0
 0 81 1 476 619 515 265 0 472 537 531 538 83 3 534 .792156862745098 .81960784313
7255 .933333333333333 81 1 537 618 515 254 0 523 539 476 540 83 3 538 .792156862
745098 .819607843137255 .933333333333333 81 3 523 686 470 254 537 264 519 533 54
1 0 0 81 1 539 617 515 266 0 456 542 537 543 83 3 540 .792156862745098 .81960784
3137255 .933333333333333 81 3 456 692 470 266 539 454 535 459 544 0 0 81 1 542 6
16 515 370 0 535 471 539 545 83 3 543 .792156862745098 .819607843137255 .9333333
33333333 81 3 535 690 470 370 542 378 533 456 546 0 0 81 1 471 615 515 379 0 465
 547 542 548 83 3 545 .792156862745098 .819607843137255 .933333333333333 81 1 54
7 614 515 408 0 462 549 471 550 83 3 548 .792156862745098 .819607843137255 .9333
33333333333 81 3 462 696 470 408 547 460 459 465 551 0 0 81 1 549 613 515 16 0 4
59 0 547 552 83 3 550 .792156862745098 .819607843137255 .933333333333333 81 3 45
9 694 470 16 549 457 456 462 553 0 0 83 3 552 .792156862745098 .819607843137255
 .933333333333333 82 6 553 0 1938054011 31238226 0 0 0 82 6 551 0 1938054011 312
38226 0 0 0 81 1 378 691 455 370 535 0 294 454 554 82 6 546 0 1938054011 3123822
6 0 0 0 81 1 294 689 455 291 533 0 264 378 555 82 1 554 -732823449 81 1 264 687
 455 254 523 0 215 294 556 82 1 555 -733872025 81 1 215 685 455 129 519 0 183 26
4 557 82 1 556 -733347737 81 1 183 683 455 173 522 0 0 215 558 82 1 557 -7608073
21 82 1 558 -735707033 82 6 544 0 1938054011 31238226 0 0 0 82 6 541 0 193805401
1 31238226 0 0 0 82 6 536 0 1938054011 31238226 0 0 0 82 6 526 0 1938054011 3123
8226 0 0 0 82 6 524 0 1938054011 31238226 0 0 0 79 255 15 518 SDL/TYSA_COLOUR79
 18 514 DOWNSTREAM_FACE_ID82 6 509 0 1938054011 31238226 0 0 0 82 6 504 0 193805
4011 31238226 0 0 0 51 255 187 350 0 139 175 496 0 -.0585299700334511 .003175 .0
00588736585831584 0 -1 0 .00952499999549699 0 0 -1 50 496 352 0 488 187 297 0 +.
0538110165485135 .003175 -.001427502005863168 -.707106781186548 0 -.707106781186
548 -.707106781186548 0 .707106781186548 67 297 353 0 481 496 292 559 +193 0 -1
 0 ?141 559 560 561 561 297 137 560 419 0 1 223 562 563 +297 564 0 ?141 561 565
 559 559 297 137 565 429 0 1 566 567 568 +297 569 0 ?133 566 428 0 70 570 565 0
 +565 .0538110165485135 0 .00216460044213683 .0538110165485135 0 -.0014275020058
63168 0 1 133 567 430 0 571 565 572 0 +572 .0538110165485135 0 -.001427502005863
168 .0538110165485135 0 .00216460044213683 0 1 141 568 566 568 568 565 134 569 0
 0 0 0 0 0 +573 574 136 573 1 2 2 2 5 FFF1 575 576 577 135 574 1 0 45 4 575 0 .0
03175 1 .003175 127 2 576 2 2 128 2 577 0 1 17 571 0 86 317 578 65 70 579 567 0
 -137 572 431 0 1 567 580 581 +174 582 0 ?133 580 433 0 334 572 583 0 +583 .0569
541061905134 0 .00530769008413673 .0538110165485135 0 .00216460044213683 0 .0044
44999999470645 141 581 567 581 581 572 134 582 0 0 0 0 0 0 +584 585 136 584 2 9
 2 5 5 FFF1 586 587 588 135 585 1 0 45 18 586 -.00545995617693355 .0118527852661
512 -.00510269179197564 .0114955208811932 -.00463592087102516 .0113021824778522
 -.004169121874984585 .01110883244569532 -.003663904952933545 .0111088364904537
 -.00315864720466911 .0111088405355389 -.00269188903484195 .0113021824778522 -.0
0222510305563745 .01149553593944758 -.001867853728933555 .0118527852661512 127 5
 587 3 2 2 2 3 128 5 588 0 .25 .5 .75 1 16 334 198 0 ?67 579 318 580 0 0 1 30 58
3 434 0 1 580 589 590 +.0569541061905134 0 .00530769008413673 -.707106781186546
 0 -.707106781186549 133 589 435 0 200 583 591 0 +591 .0538110165485135 0 -.0014
27502005863168 .060995221445572 0 -.00861170690292162 0 .01016000000028726 141 5
90 580 590 590 583 16 200 189 0 ?592 140 579 589 0 0 1 30 591 436 0 1 589 227 59
3 +.0538110165485135 0 -.001427502005863168 .707106781186548 0 -.707106781186548
 133 227 441 0 116 591 226 0 +226 .0605462086385134 .003175 .00530769008413673 .
0569541061905134 .003175 .00530769008413673 0 1 141 593 589 593 593 591 17 116 0
 30 119 113 114 442 452 227 594 +17 119 0 30 122 116 117 595 453 0 596 +17 442 0
 296 333 594 111 116 452 228 0 -17 594 0 296 442 64 114 443 440 0 595 -15 296 32
8 0 64 291 0 17 64 0 296 594 333 62 309 318 304 443 +17 443 0 482 67 595 62 594
 440 0 317 +17 595 0 482 443 596 114 119 453 0 0 -15 482 326 0 67 295 0 17 596 0
 482 595 67 117 597 444 0 598 -16 453 48 0 ?119 599 452 562 0 0 1 16 599 52 0 10
00200372261548e-21 122 133 453 0 0 0 1 133 562 420 0 453 560 600 0 +600 .0569541
061905134 .003175 .00530769008413673 .0538110165485135 .003175 .0021646004421368
3 0 .004444999999470645 30 600 421 0 1 562 601 602 +.0569541061905134 .003175 .0
0530769008413673 -.707106781186546 0 -.707106781186549 133 601 422 0 444 600 603
 0 +603 .0538110165485135 .003175 .00216460044213683 .0538110165485135 0 .002164
60044213683 0 .003175 141 602 562 602 602 600 16 444 303 0 ?597 440 203 601 0 0
 1 30 603 423 0 1 601 604 605 +.0538110165485135 .003175 .00216460044213683 0 -1
 0 133 604 424 0 203 603 606 0 +606 .0538110165485135 .003175 -.0014275020058631
68 .0538110165485135 0 -.001427502005863168 0 .003175 141 605 601 605 605 603 16
 203 302 0 ?607 444 141 604 0 0 1 30 606 425 0 1 604 608 609 +.0538110165485135
 .003175 -.001427502005863168 0 -1 0 133 608 426 0 133 606 570 0 +570 .053811016
5485135 .003175 -.001427502005863168 .060995221445572 .003175 -.0086117069029216
2 0 .01016000000028726 141 609 604 609 609 606 16 133 57 0 ?124 127 599 608 0 0
 1 30 570 427 0 1 608 566 610 +.0538110165485135 .003175 -.001427502005863168 .7
07106781186548 0 -.707106781186548 141 610 608 610 610 570 17 607 0 495 592 132
 68 611 203 0 578 +15 495 322 0 592 488 0 17 592 0 495 134 607 71 578 200 0 136
 +17 132 0 495 607 134 120 124 133 0 0 -17 611 0 489 598 70 120 607 203 0 132 -1
7 578 0 86 571 73 68 592 200 0 0 -17 73 0 86 578 81 71 75 140 0 592 -17 81 0 86
 73 87 74 77 82 0 0 -17 87 0 86 81 84 76 90 164 169 0 -16 82 177 0 ?77 164 140 6
12 0 0 1 16 164 172 0 1000200459719744e-21 90 95 82 0 0 0 1 133 612 402 0 82 172
 613 0 +613 .0547144052951649 0 -.00813863934523525 .0444469556705142 0 -.003649
7621558739 0 .0112058261728401 137 172 400 0 1 169 612 614 +174 615 0 ?30 613 40
3 0 1 612 222 616 +.0547144052951649 0 -.00813863934523525 -.916259940702651 0 .
40058422468137 133 222 416 0 122 613 220 0 +220 .0538110165485135 .003175 .00216
460044213683 .0538110165485135 .003175 -.001427502005863168 0 1 141 616 612 616
 616 613 17 122 0 30 124 119 120 598 599 222 611 +17 598 0 489 597 611 117 122 5
99 223 0 -15 489 324 0 70 481 0 17 597 0 489 70 598 65 596 444 0 571 +133 223 41
8 0 598 220 560 0 +560 .0538110165485135 .003175 -.001427502005863168 .053811016
5485135 .003175 .00216460044213683 0 1 17 70 0 489 611 597 68 571 579 566 607 +1
6 579 193 0 1000200372261548e-21 70 200 334 0 0 0 1 141 614 169 614 614 172 134
 615 0 0 0 0 0 0 +617 618 136 617 2 5 2 3 5 FFF1 619 620 621 135 618 1 0 45 10 6
19 -.00661871757622637 -.002598695259848125 -.00661871757622637 -.00128545146005
979 -.00688743514306849 2568861789953305e-27 -.00715615384168533 .00128545687921
452 -.00768221632694428 .00248872438815187 127 3 620 3 2 3 128 3 621 0 .5 1 17 1
34 0 495 132 592 123 136 141 0 126 -17 136 0 135 75 126 71 134 141 0 0 +17 67 0
 482 596 443 65 317 334 0 597 +17 317 0 86 309 571 62 67 334 0 0 -133 228 443 0
 442 226 298 0 +298 .0569541061905134 .003175 .00530769008413673 .06054620863851
34 .003175 .00530769008413673 0 1 141 563 223 563 563 560 134 564 0 0 0 0 0 0 +6
22 623 136 622 1 2 2 2 5 FFF1 624 625 626 135 623 1 0 45 4 624 1 0 0 0 127 2 625
 2 2 128 2 626 0 1 82 6 499 0 1938054011 31238226 0 0 0 82 6 492 0 1938054011 31
238226 0 0 0 82 6 485 0 1938054011 31238226 0 0 0 82 6 478 0 1938054011 31238226
 0 0 0 15 330 330 0 61 265 0 82 6 473 0 1938054011 31238226 0 0 0 79 14 469 SWEn
tUnchanged82 1 464 -732299161 82 1 461 -732037017 82 1 458 -733085593 17 246 0 2
44 237 58 108 332 422 0 439 -15 244 332 0 58 254 0 17 439 0 330 332 331 108 113
 451 0 0 -17 331 0 330 439 61 111 333 424 0 442 -17 353 0 363 351 52 102 342 413
 0 421 -17 94 0 405 159 96 11 31 95 0 0 -17 36 0 168 33 90 11 159 146 0 94 -15 1
68 314 0 90 173 0 17 33 0 168 83 36 28 27 34 149 0 -17 83 0 168 90 33 76 79 142
 0 87 +141 347 346 347 347 344 134 348 0 0 0 0 0 0 +627 628 136 627 2 17 2 9 5 F
FF1 629 630 631 135 628 1 0 45 34 629 -.00590896898378628 .0257721822530037 -.00
46096340153775 .02612033800855805 -.003264711710402715 .0260950565566417 -.00191
977360779498 .0260697748077661 -.00063445585371974 .0256730394098617 .0006508820
78693334 .02527629778356675 .00177606617856385 .02453913999824415 .0029012678948
3493 .02380197067163975 .00377830904008844 .0227820492586222 .00465536391666306
 .0217621118772906 .00521566201800169 .0205392026832462 .0057759688916018 .01931
627434282385 .00597569875343519 .0179860304398237 .0061754317423221 .01665576570
997355 .00599897096605419 .0153222356376827 .00582250813150336 .0139886900107613
6 .00528365835829241 .0127561740217102 127 9 630 3 2 2 2 2 2 2 2 3 128 9 631 0 .
125 .25 .375 .5 .625 .75 .875 1 141 301 228 301 301 298 134 302 0 0 0 0 0 0 +632
 633 136 632 1 2 2 2 5 FFF1 634 635 636 135 633 1 0 45 4 634 1 0 0 0 127 2 635 2
 2 128 2 636 0 1 141 285 297 285 285 193 136 286 2 9 3 5 5 FFF1 637 638 639 135
 287 2 0 45 27 637 .0538110165485135 .003175 .00216460044213683 .053453962001521
 .003175 .001807545895144065 .0532604137602145 .003175 .001340565136228432 .0530
67177293707 .003175 .000874336607513709 .053067067772816 .003175 .00036854921813
68375 .0530669584901135 .003175 -.0001361381712845082 .0532604137602145 .003175
 -.000603466699954772 .0534535577050615 .003175 -.001070043162411258 .0538110165
485135 .003175 -.001427502005863168 127 5 638 3 2 2 2 3 128 5 639 0 .25 .5 .75 1
 141 276 268 276 276 270 136 277 2 5 3 3 5 FFF1 640 641 642 135 278 2 0 45 15 64
0 .0393595360198875 .003175 .003763736604222285 .0406724989963621 .003175 .00376
3736604222285 .0419582312823623 .003175 .004032454171070385 .0432434309573625 .0
03175 .004301060422418695 .04444695566800055 .003175 .00482723535496382 127 3 64
1 3 2 3 128 3 642 0 .5 1 141 269 431 257 257 250 141 229 227 229 229 226 134 230
 0 0 0 0 0 0 +643 644 136 643 2 9 2 5 5 FFF1 645 646 647 135 644 1 0 45 18 645 .
001275235913066344 .01858797735615105 .001632096221505415 .0182311170477119 .001
82583870136563 .01776394205024255 .00201896993060921 .0172982409732345 .00201918
4688763955 .01679192613215105 .002019398532904865 .0162877661744141 .00182583870
1365645 .01581991021405955 .00163288828578979 .01535352728087465 .00127523591306
6344 .01499587490815108 127 5 646 3 2 2 2 3 128 5 647 0 .25 .5 .75 1 141 224 222
 224 224 220 134 225 0 0 0 0 0 0 +648 649 136 648 2 9 2 5 5 FFF1 650 651 652 135
 649 1 0 45 18 650 -.001867853728933555 .0118527852661512 -.002224714037367725 .
0114959249577173 -.00269188903484195 .0113021824778522 -.00315759011185127 .0111
0905124860524 -.003663904952933545 .0111088364904537 -.00416806491067888 .011108
62264631594 -.00463592087102516 .0113021824778522 -.00510230380421149 .011495132
89342906 -.00545995617693355 .0118527852661512 127 5 651 3 2 2 2 3 128 5 652 0 .
25 .5 .75 1 141 188 167 176 176 151 141 186 172 653 654 174 141 653 388 655 186
 174 141 654 572 186 656 174 141 656 310 654 655 174 141 655 344 656 653 174 141
 150 149 150 150 147 134 152 0 0 0 0 0 0 +657 658 136 657 1 2 2 2 5 FFF1 659 660
 661 135 658 1 0 45 4 659 1 0 0 0 127 2 660 2 2 128 2 661 0 1 19 17 383 0 1 0 9
 5 0 S0 141 20 19 20 20 7 74 4 CI16 index_map_offset0 0 1 dCCZ20 15 9 0 0 508 66
2 663 664 505 665 13 511 2 0 0 0 0 0 0 0 0 0 0 0 81 2 662 588 666 1 0 663 0 0 0
 667 81 2 663 592 668 1 662 664 0 0 0 669 81 2 664 593 670 1 663 665 0 0 671 0 8
1 1 665 610 672 1 664 13 0 0 673 81 2 13 611 674 1 665 2 0 0 0 0 80 2 674 675 67
6 9000 0 0 0 0 3 5 0 0 0 FFTFFFFFFFFFFFFF9 1 79 16 676 BODY_RECIPE_200180 1 672
 677 678 9000 1 1 1 1 1 1 1 1 0 FFTFFFFFFFFFFFFF1 82 1 673 119461 79 10 678 BODY
_MATCH80 2 670 679 680 9000 0 0 0 0 3 5 0 0 0 FFTFTTTFFTFFFFFF10 10 98 255 13 67
1 66 111 115 115 45 69 120 116 114 117 100 101 49 79 23 680 SWIMPLICITBODYNAME_I
D_U80 2 668 681 682 9000 0 0 0 0 3 5 0 0 0 FFTFFFFFFFFFFFFF9 1 82 1 669 32 79 30
 682 LAST_BODY_MODIFYING_FEATURE_ID80 2 666 683 684 9000 0 0 0 0 3 5 0 0 0 FFTFF
FFFFFFFFFFF9 1 82 1 667 103 79 19 684 ENT_TIME_STAMP_200180 2 12 685 686 9000 0
 0 0 0 3 5 0 0 0 FFTFFFFFFFFFFFFF9 1 82 1 14 101 79 12 686 ATOM_ID_20011 0 
